<?xml version="1.0" encoding="UTF-8"?>
<svg id="Layer_1" data-name="Layer 1" xmlns="http://www.w3.org/2000/svg" viewBox="0 0 200 200">
  <defs>
    <style>
      .cls-1 {
        fill: #fff;
        stroke-width: 0px;
      }
    </style>
  </defs>
  <path class="cls-1" d="M98.77,121.97c3.17-1.56,6.15-3.03,9.11-4.49,3.76,4.51,9.56,5.05,13.42,3.11,3.18-1.61,4.31-4.24,3.7-8.67-4.32,2.93-9.1,3.31-13.98,2.51-5.07-.84-8.58-3.97-11.39-8.77v7.95h-11.6c0-.74,0-1.54,0-2.33,0-5.4.06-10.79-.04-16.19-.06-3.2-1.86-5.69-4.28-6.35-2.66-.73-5.75.35-7.32,2.93-.71,1.15-1.06,2.69-1.09,4.06-.13,5.77-.07,11.55-.09,17.32,0,.14-.08.28-.18.58h-11.26v-14.76h-23.7c-.1,2.76,1.05,4.67,3.4,5.79,3.1,1.48,6.54,1.71,9.05-.52,2.49-2.21,4.32-1.81,6.66-.31,1.33.85,2.82,1.46,4.22,2.17-3.93,8.98-22.17,13.24-31.81,1.89.49,1.72.89,3.16,1.35,4.79-4.58,2.32-9.28,3.03-13.99.85-4.42-2.05-5.54-6.21-5.67-10.65-.12-4.46-.03-8.92-.03-13.54-1.68-.07-3.1-.14-4.7-.21v-8.52c1.45-.07,2.93-.14,4.66-.22v-12.12h11.37v12.15h7.02v6.18c5.04-5.66,10.82-7.76,17.58-6.89,6.78.87,11.73,4.26,14.41,10.89v-9.92h11.47c.09.89.18,1.84.31,3.19,3.93-3.71,8.33-5.13,13.47-3.89,5.02,1.21,8.94,3.64,10.37,9.07,6.11-11,17.83-11.77,25.82-5.9.13-.85.25-1.64.38-2.53h11.35v10.31c5.85-12.75,18.19-13.95,26.57-7.76.13-.85.26-1.63.42-2.66h11.18v33.12h-11.18v-3.54c-4.52,4.19-9.5,5.51-15.1,4.21-5.71-1.33-9.21-5.2-11.91-10.31,0,2.68.06,5.36-.02,8.04-.07,2.35-.04,4.74-.52,7.02-1.23,5.91-5.14,9.55-10.74,11.29-6.67,2.07-13.34,1.9-19.78-1.02-3.16-1.43-5.41-3.84-6.93-7.35ZM125.5,97.16c-.01-4.45-3.33-7.82-7.72-7.83-4.48-.01-7.83,3.44-7.78,8,.05,4.53,3.28,7.7,7.81,7.67,4.45-.03,7.7-3.34,7.68-7.83ZM163.82,97.15c-.02-4.45-3.35-7.82-7.73-7.82-4.48,0-7.82,3.44-7.77,8.01.06,4.53,3.29,7.7,7.82,7.66,4.45-.04,7.69-3.35,7.67-7.84ZM24.73,89.34c0,4.06-.11,7.86.03,11.64.12,3.15,1.74,4.07,4.5,2.65-1.97-4.76-1.48-9.53.48-14.29h-5.01ZM40.42,92.21h12.32c-.29-3.65-3.39-5.25-6.22-5.22-3.5.04-5.56,1.78-6.09,5.22Z"/>
  <path class="cls-1" d="M184.12,98.9c4.16.05,7.33,3.25,7.32,7.4,0,4.21-3.32,7.42-7.6,7.36-4.09-.06-7.29-3.41-7.19-7.53.1-4.17,3.31-7.28,7.47-7.23Z"/>
</svg>